<svg id="e4qX7Q968mu1" xmlns="http://www.w3.org/2000/svg" xmlns:xlink="http://www.w3.org/1999/xlink" viewBox="0 0 256 256" shape-rendering="geometricPrecision" text-rendering="geometricPrecision"><defs><linearGradient id="e4qX7Q968mu3-fill" x1="0.5" y1="1" x2="0.5" y2="0" spreadMethod="pad" gradientUnits="objectBoundingBox" gradientTransform="translate(0 0)"><stop id="e4qX7Q968mu3-fill-0" offset="0%" stop-color="#ff0"/><stop id="e4qX7Q968mu3-fill-1" offset="100%" stop-color="#ffc0cb"/></linearGradient><linearGradient id="e4qX7Q968mu4-fill" x1="0.5" y1="0" x2="0.5" y2="1" spreadMethod="pad" gradientUnits="objectBoundingBox" gradientTransform="translate(0 0)"><stop id="e4qX7Q968mu4-fill-0" offset="0%" stop-color="#ffc0cb"/><stop id="e4qX7Q968mu4-fill-1" offset="100%" stop-color="#ff0"/></linearGradient><linearGradient id="e4qX7Q968mu5-fill" x1="0.5" y1="0" x2="0.5" y2="1" spreadMethod="pad" gradientUnits="objectBoundingBox" gradientTransform="translate(0 0)"><stop id="e4qX7Q968mu5-fill-0" offset="0%" stop-color="#ffc0cb"/><stop id="e4qX7Q968mu5-fill-1" offset="100%" stop-color="#ff0"/></linearGradient></defs><g transform="matrix(2.81 0 0 2.81 1.40659 1.40659)"><path d="M72.975,58.994h-41.12c-1.539,0-2.897-1.005-3.347-2.477L15.199,13.006h-11.699c-1.933,0-3.5-1.567-3.5-3.5s1.567-3.5,3.5-3.5h14.289c1.539,0,2.897,1.005,3.347,2.476L34.445,51.994h36.204L81.234,26.803h-6.021c-1.933,0-3.5-1.567-3.5-3.5s1.567-3.5,3.5-3.5h11.287c1.172,0,2.267.587,2.915,1.563s.766,2.212.312,3.293L76.201,56.85c-.546,1.299-1.817,2.144-3.226,2.144Z" fill="url(#e4qX7Q968mu3-fill)" stroke-miterlimit="10"/><circle r="6.16" transform="translate(34.555556 69.915676)" fill="url(#e4qX7Q968mu4-fill)" stroke-miterlimit="10"/><circle r="6.16" transform="translate(68.832773 69.915676)" fill="url(#e4qX7Q968mu5-fill)" stroke-miterlimit="10"/></g></svg>
