<svg cache-id="9be8efe860814a5eb24ab42060a67532" id="e1KP84NLudF1" xmlns="http://www.w3.org/2000/svg" xmlns:xlink="http://www.w3.org/1999/xlink" viewBox="0 0 96 96" shape-rendering="geometricPrecision" text-rendering="geometricPrecision"><defs><linearGradient id="e1KP84NLudF3-fill" x1="0.479167" y1="0" x2="0.5" y2="1" spreadMethod="pad" gradientUnits="objectBoundingBox" gradientTransform="translate(0 0)"><stop id="e1KP84NLudF3-fill-0" offset="0%" stop-color="#ff0"/><stop id="e1KP84NLudF3-fill-1" offset="100%" stop-color="#ffc0cb"/></linearGradient></defs><g transform="matrix(.1 0 0-.1 0 96)"><path d="M330,848c-33-17-51-35-67-68-22-43-23-53-23-347c0-290,1-304,20-323c28-28,112-28,140,0c17,17,20,33,20,113v92h60h60v-92c0-115,12-133,90-133c37,0,55,5,70,20c19,19,20,33,20,323c0,294-1,304-22,347-35,70-85,90-218,90-90,0-112-3-150-22ZM630,601.488056c0,0,2-113.262346-60-168.488056s-120-55.22571-180,0-60,171.881546-60,296.48806C330,791.39349,400,780,481,780c83,0,149,0,149-61.90543" transform="translate(10 0.5)" fill="url(#e1KP84NLudF3-fill)"/></g></svg>
